<svg xmlns="http://www.w3.org/2000/svg" xmlns:xlink="http://www.w3.org/1999/xlink" width="500" zoomAndPan="magnify" viewBox="0 0 375 574.999991" height="500" preserveAspectRatio="xMidYMid meet" version="1.0"><defs><g/><clipPath id="b03d3adb29"><path d="M 135.835938 86 L 186 86 L 186 117 L 135.835938 117 Z M 135.835938 86 " clip-rule="nonzero"/></clipPath><clipPath id="693c390751"><path d="M 162 94 L 186.835938 94 L 186.835938 105 L 162 105 Z M 162 94 " clip-rule="nonzero"/></clipPath><clipPath id="d4d7f6ab4e"><path d="M 141 110 L 179 110 L 179 120.914062 L 141 120.914062 Z M 141 110 " clip-rule="nonzero"/></clipPath></defs><path stroke-linecap="butt" transform="matrix(0.75, 0, 0, 0.75, 66.532207, 103.148432)" fill="none" stroke-linejoin="miter" d="M 111.894564 133.973975 C 104.300814 133.973975 98.21748 131.588558 93.639355 126.817724 C 89.082063 122.041683 86.806021 115.505224 86.806021 107.197932 L 86.806021 59.208345 C 86.806021 48.854178 88.863313 41.052094 92.988313 35.807302 C 97.113313 30.557302 103.571647 27.93751 112.368523 27.93751 C 120.040398 27.93751 126.217482 30.036468 130.889357 34.239593 C 135.582066 38.43751 137.931024 44.494802 137.931024 52.406261 L 137.931024 70.333346 L 117.22269 70.333346 L 117.22269 54.947928 C 117.22269 51.968761 116.852898 49.916678 116.123731 48.791678 C 115.394564 47.651053 114.144564 47.078136 112.368523 47.078136 C 110.514356 47.078136 109.243522 47.729178 108.550814 49.031261 C 107.863314 50.312511 107.514356 52.208345 107.514356 54.713553 L 107.514356 106.932307 C 107.514356 109.692723 107.920606 111.708349 108.727897 112.968765 C 109.535189 114.213557 110.748731 114.833349 112.368523 114.833349 C 115.602898 114.833349 117.22269 112.197932 117.22269 106.932307 L 117.22269 88.145847 L 138.196649 88.145847 L 138.196649 107.791682 C 138.196649 125.250016 129.431024 133.973975 111.894564 133.973975 Z M 145.1029 28.911468 L 177.087277 28.911468 C 182.175819 28.911468 186.113319 30.067718 188.894569 32.37501 C 191.696653 34.661468 193.576861 37.885427 194.545611 42.046886 C 195.514361 46.208344 195.993528 51.526053 195.993528 57.994803 C 195.993528 63.895845 195.227903 68.500012 193.686236 71.812513 C 192.149778 75.109388 189.488319 77.406263 185.701861 78.708346 C 188.852903 79.359388 191.134153 80.937513 192.535195 83.442722 C 193.951861 85.94793 194.665403 89.338555 194.665403 93.619806 L 194.42582 133.000017 L 174.071652 133.000017 L 174.071652 92.286472 C 174.071652 89.369805 173.498735 87.505222 172.352902 86.69793 C 171.23311 85.88543 169.17061 85.484388 166.170609 85.484388 L 166.170609 133.000017 L 145.1029 133.000017 Z M 171.259151 67.432304 C 174.181027 67.432304 175.63936 64.28647 175.63936 57.994803 C 175.63936 55.234386 175.509152 53.171886 175.253943 51.812511 C 175.019568 50.432303 174.57686 49.484386 173.925818 48.973969 C 173.290402 48.437511 172.363318 48.171886 171.144568 48.171886 L 166.290401 48.171886 L 166.290401 67.432304 Z M 200.102903 133.000017 L 210.160196 28.911468 L 245.431031 28.911468 L 255.368532 133.000017 L 235.634156 133.000017 L 234.154989 116.166682 L 221.550821 116.166682 L 220.33728 133.000017 Z M 223.14978 99.567723 L 232.58728 99.567723 L 228.003947 46.604178 L 227.02478 46.604178 Z M 223.14978 99.567723 " stroke="#ffffff" stroke-width="10.60465" stroke-opacity="1" stroke-miterlimit="4"/><path stroke-linecap="butt" transform="matrix(0.75, 0, 0, 0.75, 66.532207, 103.148432)" fill="none" stroke-linejoin="miter" d="M 285.925826 133.973975 C 278.332075 133.973975 272.248741 131.588558 267.670616 126.817724 C 263.113324 122.041683 260.837282 115.505224 260.837282 107.197932 L 260.837282 59.208345 C 260.837282 48.854178 262.894574 41.052094 267.019574 35.807302 C 271.144575 30.557302 277.602908 27.93751 286.399784 27.93751 C 294.07166 27.93751 300.248743 30.036468 304.920619 34.239593 C 309.613327 38.43751 311.962286 44.494802 311.962286 52.406261 L 311.962286 70.333346 L 291.253951 70.333346 L 291.253951 54.947928 C 291.253951 51.968761 290.884159 49.916678 290.154993 48.791678 C 289.425826 47.651053 288.175826 47.078136 286.399784 47.078136 C 284.545617 47.078136 283.274784 47.729178 282.582075 49.031261 C 281.894575 50.312511 281.545617 52.208345 281.545617 54.713553 L 281.545617 106.932307 C 281.545617 109.692723 281.951867 111.708349 282.759159 112.968765 C 283.566451 114.213557 284.779992 114.833349 286.399784 114.833349 C 289.634159 114.833349 291.253951 112.197932 291.253951 106.932307 L 291.253951 88.145847 L 312.227911 88.145847 L 312.227911 107.791682 C 312.227911 125.250016 303.462285 133.973975 285.925826 133.973975 Z M 285.925826 133.973975 " stroke="#ffffff" stroke-width="10.60465" stroke-opacity="1" stroke-miterlimit="4"/><g fill="#1c75bc" fill-opacity="1"><g transform="translate(128.817359, 202.898425)"><g><path d="M 21.625 0.734375 C 15.9375 0.734375 11.378906 -1.050781 7.953125 -4.625 C 4.523438 -8.207031 2.8125 -13.117188 2.8125 -19.359375 L 2.8125 -55.359375 C 2.8125 -63.109375 4.359375 -68.953125 7.453125 -72.890625 C 10.546875 -76.828125 15.394531 -78.796875 22 -78.796875 C 27.75 -78.796875 32.378906 -77.21875 35.890625 -74.0625 C 39.410156 -70.914062 41.171875 -66.375 41.171875 -60.4375 L 41.171875 -46.984375 L 25.625 -46.984375 L 25.625 -58.53125 C 25.625 -60.769531 25.351562 -62.3125 24.8125 -63.15625 C 24.269531 -64.007812 23.332031 -64.4375 22 -64.4375 C 20.601562 -64.4375 19.644531 -63.953125 19.125 -62.984375 C 18.613281 -62.015625 18.359375 -60.59375 18.359375 -58.71875 L 18.359375 -19.546875 C 18.359375 -17.484375 18.660156 -15.984375 19.265625 -15.046875 C 19.867188 -14.109375 20.78125 -13.640625 22 -13.640625 C 24.414062 -13.640625 25.625 -15.609375 25.625 -19.546875 L 25.625 -33.625 L 41.359375 -33.625 L 41.359375 -18.90625 C 41.359375 -5.8125 34.78125 0.734375 21.625 0.734375 Z M 21.625 0.734375 "/></g></g></g><g fill="#1c75bc" fill-opacity="1"><g transform="translate(171.899499, 202.898425)"><g><path d="M 3.453125 -78.078125 L 27.453125 -78.078125 C 31.265625 -78.078125 34.21875 -77.210938 36.3125 -75.484375 C 38.40625 -73.753906 39.8125 -71.328125 40.53125 -68.203125 C 41.257812 -65.085938 41.625 -61.109375 41.625 -56.265625 C 41.625 -51.835938 41.046875 -48.378906 39.890625 -45.890625 C 38.742188 -43.410156 36.75 -41.6875 33.90625 -40.71875 C 36.269531 -40.226562 37.976562 -39.046875 39.03125 -37.171875 C 40.09375 -35.296875 40.625 -32.753906 40.625 -29.546875 L 40.453125 0 L 25.171875 0 L 25.171875 -30.546875 C 25.171875 -32.722656 24.742188 -34.113281 23.890625 -34.71875 C 23.046875 -35.320312 21.503906 -35.625 19.265625 -35.625 L 19.265625 0 L 3.453125 0 Z M 23.09375 -49.171875 C 25.269531 -49.171875 26.359375 -51.535156 26.359375 -56.265625 C 26.359375 -58.328125 26.265625 -59.867188 26.078125 -60.890625 C 25.898438 -61.921875 25.566406 -62.632812 25.078125 -63.03125 C 24.597656 -63.425781 23.90625 -63.625 23 -63.625 L 19.359375 -63.625 L 19.359375 -49.171875 Z M 23.09375 -49.171875 "/></g></g></g><g fill="#1c75bc" fill-opacity="1"><g transform="translate(215.254305, 202.898425)"><g><path d="M 1.359375 0 L 8.90625 -78.078125 L 35.359375 -78.078125 L 42.8125 0 L 28 0 L 26.90625 -12.640625 L 17.453125 -12.640625 L 16.546875 0 Z M 18.625 -25.078125 L 25.71875 -25.078125 L 22.265625 -64.8125 L 21.546875 -64.8125 Z M 18.625 -25.078125 "/></g></g></g><g fill="#b7601b" fill-opacity="1"><g transform="translate(259.340792, 202.898425)"><g><path d="M 21.625 0.734375 C 15.9375 0.734375 11.378906 -1.050781 7.953125 -4.625 C 4.523438 -8.207031 2.8125 -13.117188 2.8125 -19.359375 L 2.8125 -55.359375 C 2.8125 -63.109375 4.359375 -68.953125 7.453125 -72.890625 C 10.546875 -76.828125 15.394531 -78.796875 22 -78.796875 C 27.75 -78.796875 32.378906 -77.21875 35.890625 -74.0625 C 39.410156 -70.914062 41.171875 -66.375 41.171875 -60.4375 L 41.171875 -46.984375 L 25.625 -46.984375 L 25.625 -58.53125 C 25.625 -60.769531 25.351562 -62.3125 24.8125 -63.15625 C 24.269531 -64.007812 23.332031 -64.4375 22 -64.4375 C 20.601562 -64.4375 19.644531 -63.953125 19.125 -62.984375 C 18.613281 -62.015625 18.359375 -60.59375 18.359375 -58.71875 L 18.359375 -19.546875 C 18.359375 -17.484375 18.660156 -15.984375 19.265625 -15.046875 C 19.867188 -14.109375 20.78125 -13.640625 22 -13.640625 C 24.414062 -13.640625 25.625 -15.609375 25.625 -19.546875 L 25.625 -33.625 L 41.359375 -33.625 L 41.359375 -18.90625 C 41.359375 -5.8125 34.78125 0.734375 21.625 0.734375 Z M 21.625 0.734375 "/></g></g></g><g clip-path="url(#b03d3adb29)"><path fill="#1c75bc" d="M 151.664062 113.355469 C 156.949219 110.507812 159.855469 106.328125 162.761719 101.210938 C 167.078125 93.601562 176.570312 89.285156 184.511719 86.65625 C 184.898438 86.515625 185.257812 86.40625 185.644531 86.296875 C 178.644531 85.742188 170.8125 88.175781 164.835938 92.078125 C 158.03125 96.53125 153.851562 103.976562 146.628906 107.960938 C 143.503906 109.675781 139.433594 110.976562 135.835938 110.976562 C 138.355469 111.75 141.484375 113.855469 140.238281 116.953125 C 144.222656 116.234375 148.066406 115.292969 151.664062 113.355469 Z M 151.664062 113.355469 " fill-opacity="1" fill-rule="nonzero"/></g><g clip-path="url(#693c390751)"><path fill="#b7601b" d="M 169.511719 95.785156 C 167.160156 97.667969 165.335938 99.714844 164.0625 101.957031 C 163.480469 102.953125 162.925781 103.921875 162.347656 104.835938 C 162.402344 104.804688 162.457031 104.777344 162.511719 104.722656 C 162.511719 104.722656 162.539062 104.722656 162.539062 104.695312 C 162.59375 104.667969 162.648438 104.613281 162.707031 104.585938 C 163.09375 104.335938 163.535156 104.058594 164.0625 103.753906 C 168.820312 100.90625 178.863281 95.535156 184.648438 97.363281 C 185.0625 97.5 185.449219 97.667969 185.808594 97.863281 C 185.894531 97.890625 185.949219 97.945312 186.03125 98 C 186.085938 98.027344 186.140625 98.082031 186.226562 98.109375 C 186.253906 98.109375 186.253906 98.136719 186.28125 98.136719 C 186.335938 98.195312 186.390625 98.222656 186.472656 98.277344 C 186.417969 98.277344 181.6875 91.441406 169.511719 95.785156 Z M 169.511719 95.785156 " fill-opacity="1" fill-rule="nonzero"/></g><path fill="#b7601b" d="M 166.664062 104.28125 C 166.664062 104.28125 163.121094 106.496094 160.769531 107.160156 C 158.5 110.285156 155.925781 112.746094 152.355469 114.683594 C 152.382812 114.683594 152.382812 114.683594 152.414062 114.683594 C 152.441406 114.683594 152.496094 114.65625 152.550781 114.65625 C 152.550781 114.65625 152.550781 114.65625 152.578125 114.65625 C 152.605469 114.65625 152.632812 114.65625 152.632812 114.65625 C 152.632812 114.65625 152.632812 114.65625 152.660156 114.65625 C 152.6875 114.65625 152.714844 114.65625 152.746094 114.628906 L 152.773438 114.628906 C 152.800781 114.628906 152.800781 114.628906 152.828125 114.628906 L 152.855469 114.628906 C 152.882812 114.628906 152.910156 114.628906 152.9375 114.601562 C 152.964844 114.601562 152.964844 114.601562 152.992188 114.601562 L 153.019531 114.601562 C 153.046875 114.601562 153.078125 114.601562 153.078125 114.601562 C 153.132812 114.601562 153.1875 114.574219 153.242188 114.574219 L 153.269531 114.574219 C 153.351562 114.546875 153.464844 114.546875 153.574219 114.519531 C 153.824219 114.464844 154.101562 114.410156 154.433594 114.324219 C 154.570312 114.296875 154.679688 114.269531 154.820312 114.214844 L 154.847656 114.214844 C 154.984375 114.1875 155.125 114.160156 155.234375 114.105469 C 155.261719 114.105469 155.261719 114.105469 155.289062 114.078125 C 155.371094 114.046875 155.457031 114.046875 155.511719 114.019531 C 155.539062 114.019531 155.539062 114.019531 155.566406 114.019531 C 158.804688 113.136719 163.8125 111.335938 168.019531 107.933594 C 171.699219 104.945312 175.765625 104.640625 178.726562 104.972656 C 180.800781 105.222656 182.324219 105.773438 182.820312 105.996094 C 182.847656 105.996094 182.847656 106.023438 182.878906 106.023438 C 182.90625 106.023438 182.90625 106.023438 182.90625 106.050781 L 182.960938 106.050781 C 182.960938 106.050781 173.941406 100.128906 166.664062 104.28125 Z M 166.664062 104.28125 " fill-opacity="1" fill-rule="nonzero"/><g clip-path="url(#d4d7f6ab4e)"><path fill="#b7601b" d="M 161.765625 113.382812 C 158 115.238281 154.210938 116.207031 149.949219 115.847656 C 149.949219 115.847656 149.921875 115.847656 149.867188 115.875 C 147.542969 116.84375 145.21875 117.480469 143.003906 117.949219 C 142.367188 118.144531 141.953125 118.28125 141.953125 118.28125 L 142.007812 118.28125 C 142.007812 118.28125 142.007812 118.28125 142.035156 118.28125 L 142.0625 118.28125 C 142.089844 118.28125 142.089844 118.28125 142.117188 118.28125 C 142.148438 118.28125 142.148438 118.28125 142.175781 118.28125 C 142.175781 118.28125 142.175781 118.28125 142.203125 118.28125 C 142.230469 118.28125 142.230469 118.28125 142.257812 118.28125 C 142.257812 118.28125 142.257812 118.28125 142.285156 118.28125 C 142.339844 118.28125 142.367188 118.308594 142.421875 118.335938 C 142.449219 118.335938 142.480469 118.363281 142.480469 118.363281 C 142.507812 118.363281 142.535156 118.394531 142.5625 118.394531 C 142.617188 118.421875 142.671875 118.449219 142.726562 118.476562 C 142.753906 118.476562 142.78125 118.503906 142.8125 118.503906 C 143.390625 118.78125 144.082031 119.140625 144.304688 119.222656 C 146.378906 119.96875 148.539062 120.46875 150.753906 120.605469 C 156.5625 121.019531 160.464844 118.667969 164.945312 115.320312 C 167.742188 113.246094 170.867188 111.503906 174.273438 111.613281 C 174.355469 111.613281 174.4375 111.613281 174.546875 111.613281 C 174.578125 111.613281 174.605469 111.613281 174.605469 111.613281 C 174.6875 111.613281 174.769531 111.613281 174.851562 111.640625 C 174.9375 111.640625 175.019531 111.667969 175.101562 111.667969 C 175.128906 111.667969 175.15625 111.667969 175.183594 111.667969 C 175.269531 111.667969 175.351562 111.695312 175.433594 111.695312 C 175.515625 111.722656 175.601562 111.722656 175.683594 111.75 C 175.710938 111.75 175.738281 111.75 175.765625 111.75 C 175.847656 111.78125 175.933594 111.78125 176.042969 111.808594 C 176.125 111.835938 176.207031 111.863281 176.320312 111.863281 C 176.347656 111.863281 176.375 111.863281 176.375 111.890625 C 176.457031 111.917969 176.570312 111.945312 176.652344 111.972656 C 177.371094 112.195312 178.144531 112.472656 178.753906 112.914062 C 177.011719 111.667969 175.710938 110.589844 173.441406 110.175781 C 169.261719 109.425781 165.554688 111.503906 161.765625 113.382812 Z M 161.765625 113.382812 " fill-opacity="1" fill-rule="nonzero"/></g><path stroke-linecap="butt" transform="matrix(0.75, 0, 0, 0.75, 158.90762, 97.064854)" fill="none" stroke-linejoin="miter" d="M 43.315884 11.548945 C 43.420051 11.548945 43.529426 11.585403 43.644009 11.653112 C 43.753384 11.731237 43.857551 11.819778 43.940884 11.913528 C 44.019009 12.012487 44.086717 12.116653 44.138801 12.226028 C 44.190884 12.324987 44.206509 12.413528 44.190884 12.50207 L 43.003384 17.929154 L 39.8263 15.93957 L 40.164842 14.335403 L 37.591925 14.335403 L 35.649217 23.199987 L 38.227342 23.199987 L 38.8888 20.22082 L 42.065884 22.226029 L 41.23255 25.986446 L 32.498175 25.986446 C 32.404425 25.986446 32.29505 25.949987 32.175258 25.882279 C 32.123175 25.840612 32.071091 25.798946 32.024216 25.757279 C 31.977341 25.720821 31.930466 25.673946 31.8888 25.621862 C 31.789841 25.533321 31.727341 25.429154 31.690883 25.309362 C 31.6388 25.215612 31.623175 25.121862 31.6388 25.038529 L 34.581508 11.548945 Z M 45.711717 11.548945 L 51.336718 11.548945 L 48.784634 23.199987 L 50.279426 23.199987 L 50.581509 21.845821 L 54.185676 21.845821 L 53.284635 25.986446 L 44.539842 25.986446 L 47.258592 13.569778 Z M 66.305469 11.548945 L 65.39401 15.679153 L 61.784635 15.679153 L 62.071093 14.335403 L 60.586718 14.335403 L 59.935677 17.293737 L 64.586719 17.293737 L 60.810677 20.074987 L 59.326302 20.074987 L 58.649218 23.199987 L 60.133593 23.199987 L 60.430468 21.845821 L 64.05026 21.845821 L 63.138802 25.986446 L 54.404426 25.986446 L 57.123176 13.569778 L 55.576301 11.548945 Z M 66.472135 25.986446 L 72.628386 11.548945 L 78.644011 11.548945 L 78.487761 25.986446 L 74.555469 25.986446 L 74.513803 24.595821 L 71.430469 21.116654 L 74.722136 21.116654 L 74.867969 15.653112 L 74.815886 15.236445 L 72.638802 20.585404 L 69.972136 20.585404 L 71.795052 22.705196 L 70.404427 25.986446 Z M 83.248178 25.976029 L 79.61797 25.976029 L 82.326303 13.554153 L 80.789845 11.538528 L 86.227345 11.538528 L 88.050262 17.356237 L 89.315887 11.538528 L 92.935679 11.538528 L 89.810679 25.819779 L 87.753387 27.356238 L 84.784637 18.955195 Z M 101.836721 18.215612 L 102.670054 14.387487 L 99.831513 14.387487 L 98.867971 18.772904 L 97.852346 19.465612 L 98.331513 21.22082 L 97.279429 26.038529 L 93.649221 26.038529 L 96.367971 13.621862 L 94.821096 11.601028 L 105.847138 11.601028 C 105.940888 11.601028 106.050263 11.637487 106.170055 11.705195 C 106.284638 11.778112 106.378388 11.861445 106.456513 11.965612 C 106.545055 12.054153 106.607555 12.153112 106.65443 12.267695 C 106.706513 12.397903 106.722138 12.491653 106.706513 12.554153 L 105.09193 19.97082 L 103.164846 20.960404 L 104.347138 25.949987 L 100.795054 27.627071 L 98.737763 19.778112 Z M 110.164847 11.548945 L 118.899222 11.548945 C 119.019014 11.548945 119.128389 11.585403 119.227347 11.653112 C 119.284639 11.68957 119.341931 11.726028 119.388806 11.772903 C 119.435681 11.81457 119.482556 11.856237 119.524222 11.903112 C 119.602347 12.007278 119.670056 12.111445 119.722139 12.215612 C 119.774222 12.324987 119.789847 12.423945 119.774222 12.50207 L 116.815889 25.986446 L 108.081513 25.986446 C 107.977346 25.986446 107.867971 25.949987 107.758596 25.871862 C 107.65443 25.798946 107.555471 25.715612 107.472138 25.621862 C 107.394013 25.528112 107.321096 25.423946 107.263805 25.309362 C 107.242971 25.257279 107.227346 25.210404 107.21693 25.158321 C 107.201305 25.111446 107.206513 25.069779 107.222138 25.038529 Z M 111.232555 23.199987 L 113.81068 23.199987 L 115.74818 14.335403 L 113.170055 14.335403 Z M 123.404431 11.548945 L 132.138806 11.548945 C 132.258598 11.548945 132.367973 11.585403 132.461723 11.653112 C 132.524223 11.68957 132.576306 11.726028 132.623181 11.772903 C 132.670056 11.81457 132.716931 11.856237 132.763806 11.903112 C 132.841931 12.007278 132.904431 12.111445 132.956515 12.215612 C 133.008598 12.324987 133.024223 12.423945 133.008598 12.50207 L 130.055473 25.986446 L 121.321097 25.986446 C 121.216931 25.986446 121.107556 25.949987 120.992972 25.871862 C 120.888806 25.798946 120.795056 25.715612 120.706514 25.621862 C 120.628389 25.528112 120.560681 25.423946 120.498181 25.309362 C 120.482556 25.257279 120.466931 25.210404 120.451306 25.158321 C 120.440889 25.111446 120.440889 25.069779 120.461722 25.038529 Z M 124.466931 23.199987 L 127.045056 23.199987 L 128.987765 14.335403 L 126.409639 14.335403 Z M 137.31589 25.986446 L 133.685681 25.986446 L 136.394015 13.569778 L 134.857557 11.548945 L 140.466932 11.548945 L 141.69089 17.56457 L 145.867974 11.548945 L 149.602349 11.548945 L 146.440891 25.986446 L 142.836724 25.986446 L 144.164849 19.90832 L 142.586724 22.314571 C 142.571099 22.335404 142.550265 22.351029 142.524224 22.366654 C 142.477349 22.387487 142.456515 22.408321 142.456515 22.434362 L 142.15964 22.731237 L 139.581515 24.673946 L 138.800265 20.074987 L 138.654432 19.830195 Z M 159.753392 25.986446 L 165.909642 11.548945 L 171.925267 11.548945 L 171.769017 25.986446 L 167.836725 25.986446 L 167.800267 24.595821 L 164.711725 21.116654 L 168.0086 21.116654 L 168.149225 15.653112 L 168.097142 15.236445 L 165.925267 20.585404 L 163.2586 20.585404 L 165.076309 22.705196 L 163.685683 25.986446 Z M 185.435685 11.548945 C 185.539852 11.548945 185.649227 11.585403 185.76381 11.653112 C 185.873185 11.731237 185.972143 11.819778 186.060685 11.913528 C 186.13881 12.012487 186.206518 12.116653 186.258602 12.226028 C 186.310685 12.324987 186.32631 12.413528 186.310685 12.50207 L 185.123185 17.929154 L 181.946101 15.93957 L 182.284643 14.335403 L 179.706518 14.335403 L 177.769018 23.199987 L 180.347143 23.199987 L 181.008601 20.22082 L 184.185685 22.226029 L 183.352351 25.986446 L 174.617976 25.986446 C 174.524226 25.986446 174.414851 25.949987 174.295059 25.882279 C 174.242976 25.840612 174.190892 25.798946 174.144017 25.757279 C 174.097142 25.720821 174.050267 25.673946 174.008601 25.621862 C 173.909642 25.533321 173.847142 25.429154 173.810684 25.309362 C 173.758601 25.215612 173.742976 25.121862 173.758601 25.038529 L 176.701309 11.548945 Z M 185.435685 11.548945 " stroke="#ffffff" stroke-width="2.000002" stroke-opacity="1" stroke-miterlimit="4"/><g fill="#1c75bc" fill-opacity="1"><g transform="translate(182.286525, 116.564853)"><g><path d="M 9.109375 -10.84375 C 9.191406 -10.84375 9.273438 -10.816406 9.359375 -10.765625 C 9.441406 -10.703125 9.515625 -10.632812 9.578125 -10.5625 C 9.640625 -10.488281 9.691406 -10.410156 9.734375 -10.328125 C 9.765625 -10.253906 9.773438 -10.1875 9.765625 -10.125 L 8.875 -6.0625 L 6.5 -7.546875 L 6.75 -8.75 L 4.8125 -8.75 L 3.359375 -2.09375 L 5.296875 -2.09375 L 5.796875 -4.34375 L 8.171875 -2.828125 L 7.546875 -0.015625 L 1 -0.015625 C 0.925781 -0.015625 0.84375 -0.0390625 0.75 -0.09375 C 0.707031 -0.125 0.671875 -0.148438 0.640625 -0.171875 C 0.609375 -0.203125 0.570312 -0.238281 0.53125 -0.28125 C 0.46875 -0.34375 0.421875 -0.421875 0.390625 -0.515625 C 0.347656 -0.585938 0.335938 -0.65625 0.359375 -0.71875 L 2.5625 -10.84375 Z M 9.109375 -10.84375 "/></g></g></g><g fill="#1c75bc" fill-opacity="1"><g transform="translate(192.302142, 116.564853)"><g><path d="M 0.890625 -10.84375 L 5.109375 -10.84375 L 3.1875 -2.09375 L 4.3125 -2.09375 L 4.546875 -3.109375 L 7.25 -3.109375 L 6.578125 -0.015625 L 0.015625 -0.015625 L 2.046875 -9.328125 Z M 0.890625 -10.84375 "/></g></g></g><g fill="#1c75bc" fill-opacity="1"><g transform="translate(199.701594, 116.564853)"><g><path d="M 8.9375 -10.84375 L 8.25 -7.75 L 5.546875 -7.75 L 5.765625 -8.75 L 4.65625 -8.75 L 4.15625 -6.53125 L 7.640625 -6.53125 L 4.8125 -4.4375 L 3.703125 -4.4375 L 3.1875 -2.09375 L 4.3125 -2.09375 L 4.53125 -3.109375 L 7.25 -3.109375 L 6.5625 -0.015625 L 0.015625 -0.015625 L 2.046875 -9.328125 L 0.890625 -10.84375 Z M 8.9375 -10.84375 "/></g></g></g><g fill="#1c75bc" fill-opacity="1"><g transform="translate(208.975313, 116.564853)"><g><path d="M -0.21875 -0.015625 L 4.40625 -10.84375 L 8.921875 -10.84375 L 8.796875 -0.015625 L 5.84375 -0.015625 L 5.828125 -1.0625 L 3.5 -3.65625 L 5.984375 -3.65625 L 6.078125 -7.765625 L 6.046875 -8.078125 L 4.421875 -4.0625 L 2.40625 -4.0625 L 3.78125 -2.46875 L 2.734375 -0.015625 Z M -0.21875 -0.015625 "/></g></g></g><g fill="#1c75bc" fill-opacity="1"><g transform="translate(218.45403, 116.564853)"><g><path d="M 2.890625 -0.015625 L 0.171875 -0.015625 L 2.203125 -9.34375 L 1.046875 -10.84375 L 5.125 -10.84375 L 6.5 -6.484375 L 7.4375 -10.84375 L 10.15625 -10.84375 L 7.8125 -0.140625 L 6.265625 1.015625 L 4.046875 -5.28125 Z M 2.890625 -0.015625 "/></g></g></g><g fill="#1c75bc" fill-opacity="1"><g transform="translate(228.879643, 116.564853)"><g><path d="M 6.40625 -5.84375 L 7.03125 -8.71875 L 4.90625 -8.71875 L 4.1875 -5.421875 L 3.421875 -4.90625 L 3.78125 -3.578125 L 2.984375 0.03125 L 0.265625 0.03125 L 2.3125 -9.28125 L 1.140625 -10.796875 L 9.421875 -10.796875 C 9.484375 -10.796875 9.5625 -10.769531 9.65625 -10.71875 C 9.738281 -10.664062 9.8125 -10.601562 9.875 -10.53125 C 9.9375 -10.46875 9.984375 -10.390625 10.015625 -10.296875 C 10.054688 -10.203125 10.070312 -10.132812 10.0625 -10.09375 L 8.84375 -4.515625 L 7.40625 -3.78125 L 8.296875 -0.046875 L 5.625 1.21875 L 4.078125 -4.671875 Z M 6.40625 -5.84375 "/></g></g></g><g fill="#1c75bc" fill-opacity="1"><g transform="translate(239.305255, 116.564853)"><g><path d="M 2.234375 -10.84375 L 8.78125 -10.84375 C 8.875 -10.84375 8.957031 -10.816406 9.03125 -10.765625 C 9.070312 -10.734375 9.109375 -10.703125 9.140625 -10.671875 C 9.179688 -10.640625 9.21875 -10.609375 9.25 -10.578125 C 9.3125 -10.492188 9.359375 -10.414062 9.390625 -10.34375 C 9.429688 -10.257812 9.445312 -10.1875 9.4375 -10.125 L 7.21875 -0.015625 L 0.671875 -0.015625 C 0.585938 -0.015625 0.503906 -0.0390625 0.421875 -0.09375 C 0.335938 -0.144531 0.265625 -0.207031 0.203125 -0.28125 C 0.148438 -0.351562 0.0976562 -0.429688 0.046875 -0.515625 C 0.0351562 -0.554688 0.0234375 -0.59375 0.015625 -0.625 C 0.00390625 -0.664062 0.00390625 -0.695312 0.015625 -0.71875 Z M 3.03125 -2.09375 L 4.96875 -2.09375 L 6.421875 -8.75 L 4.484375 -8.75 Z M 3.03125 -2.09375 "/></g></g></g><g fill="#1c75bc" fill-opacity="1"><g transform="translate(249.233016, 116.564853)"><g><path d="M 2.234375 -10.84375 L 8.78125 -10.84375 C 8.875 -10.84375 8.957031 -10.816406 9.03125 -10.765625 C 9.070312 -10.734375 9.109375 -10.703125 9.140625 -10.671875 C 9.179688 -10.640625 9.21875 -10.609375 9.25 -10.578125 C 9.3125 -10.492188 9.359375 -10.414062 9.390625 -10.34375 C 9.429688 -10.257812 9.445312 -10.1875 9.4375 -10.125 L 7.21875 -0.015625 L 0.671875 -0.015625 C 0.585938 -0.015625 0.503906 -0.0390625 0.421875 -0.09375 C 0.335938 -0.144531 0.265625 -0.207031 0.203125 -0.28125 C 0.148438 -0.351562 0.0976562 -0.429688 0.046875 -0.515625 C 0.0351562 -0.554688 0.0234375 -0.59375 0.015625 -0.625 C 0.00390625 -0.664062 0.00390625 -0.695312 0.015625 -0.71875 Z M 3.03125 -2.09375 L 4.96875 -2.09375 L 6.421875 -8.75 L 4.484375 -8.75 Z M 3.03125 -2.09375 "/></g></g></g><g fill="#1c75bc" fill-opacity="1"><g transform="translate(259.160776, 116.564853)"><g><path d="M 2.734375 -0.015625 L 0.015625 -0.015625 L 2.046875 -9.328125 L 0.890625 -10.84375 L 5.09375 -10.84375 L 6.015625 -6.328125 L 9.15625 -10.84375 L 11.953125 -10.84375 L 9.578125 -0.015625 L 6.875 -0.015625 L 7.875 -4.578125 L 6.6875 -2.765625 C 6.675781 -2.753906 6.660156 -2.738281 6.640625 -2.71875 C 6.609375 -2.707031 6.59375 -2.691406 6.59375 -2.671875 L 6.375 -2.453125 L 4.4375 -1 L 3.84375 -4.4375 L 3.734375 -4.625 Z M 2.734375 -0.015625 "/></g></g></g><g fill="#1c75bc" fill-opacity="1"><g transform="translate(271.343515, 116.564853)"><g/></g></g><g fill="#1c75bc" fill-opacity="1"><g transform="translate(278.079163, 116.564853)"><g><path d="M 0.640625 -0.015625 L 5.265625 -10.84375 L 9.78125 -10.84375 L 9.65625 -0.015625 L 6.703125 -0.015625 L 6.6875 -1.0625 L 4.359375 -3.65625 L 6.84375 -3.65625 L 6.9375 -7.765625 L 6.90625 -8.078125 L 5.28125 -4.0625 L 3.265625 -4.0625 L 4.640625 -2.46875 L 3.59375 -0.015625 Z M 0.640625 -0.015625 "/></g></g></g><g fill="#1c75bc" fill-opacity="1"><g transform="translate(288.875725, 116.564853)"><g><path d="M 9.109375 -10.84375 C 9.191406 -10.84375 9.273438 -10.816406 9.359375 -10.765625 C 9.441406 -10.703125 9.515625 -10.632812 9.578125 -10.5625 C 9.640625 -10.488281 9.691406 -10.410156 9.734375 -10.328125 C 9.765625 -10.253906 9.773438 -10.1875 9.765625 -10.125 L 8.875 -6.0625 L 6.5 -7.546875 L 6.75 -8.75 L 4.8125 -8.75 L 3.359375 -2.09375 L 5.296875 -2.09375 L 5.796875 -4.34375 L 8.171875 -2.828125 L 7.546875 -0.015625 L 1 -0.015625 C 0.925781 -0.015625 0.84375 -0.0390625 0.75 -0.09375 C 0.707031 -0.125 0.671875 -0.148438 0.640625 -0.171875 C 0.609375 -0.203125 0.570312 -0.238281 0.53125 -0.28125 C 0.46875 -0.34375 0.421875 -0.421875 0.390625 -0.515625 C 0.347656 -0.585938 0.335938 -0.65625 0.359375 -0.71875 L 2.5625 -10.84375 Z M 9.109375 -10.84375 "/></g></g></g></svg>